<?xml version="1.0" encoding="UTF-8"?>
<svg width="1200pt" height="1200pt" version="1.1" viewBox="0 0 1200 1200" xmlns="http://www.w3.org/2000/svg">
 <path d="m1046 350h4c26.512-0.027344 51.934-10.57 70.68-29.32 18.75-18.746 29.293-44.168 29.32-70.68v-100c-0.027344-26.512-10.57-51.934-29.32-70.68-18.746-18.75-44.168-29.293-70.68-29.32h-100c-26.512 0.027344-51.934 10.57-70.68 29.32-18.75 18.746-29.293 44.168-29.32 70.68v100c0.0625 25.602 9.9531 50.199 27.633 68.719 17.68 18.516 41.797 29.535 67.367 30.781-9.8203 48.168-33.594 92.387-68.352 127.15-34.762 34.758-78.98 58.531-127.15 68.352-1.2461-25.57-12.266-49.688-30.781-67.367-18.52-17.68-43.117-27.57-68.719-27.633h-100c-26.512 0.027344-51.934 10.57-70.68 29.32-18.75 18.746-29.293 44.168-29.32 70.68h-350c-17.863 0-34.371 9.5312-43.301 25-8.9336 15.469-8.9336 34.531 0 50 8.9297 15.469 25.438 25 43.301 25h155.5c-54.91 53.688-90.586 123.98-101.5 200h-4c-26.512 0.027344-51.934 10.57-70.68 29.32-18.75 18.746-29.293 44.168-29.32 70.68v100c0.027344 26.512 10.57 51.934 29.32 70.68 18.746 18.75 44.168 29.293 70.68 29.32h100c26.512-0.027344 51.934-10.57 70.68-29.32 18.75-18.746 29.293-44.168 29.32-70.68v-100c-0.0625-25.602-9.9531-50.199-27.633-68.719-17.68-18.516-41.797-29.535-67.367-30.781 9.8203-48.168 33.594-92.387 68.352-127.15 34.762-34.758 78.98-58.531 127.15-68.352 1.2461 25.57 12.266 49.688 30.781 67.367 18.52 17.68 43.117 27.57 68.719 27.633h100c26.512-0.027344 51.934-10.57 70.68-29.32 18.75-18.746 29.293-44.168 29.32-70.68h350c17.863 0 34.371-9.5312 43.301-25 8.9336-15.469 8.9336-34.531 0-50-8.9297-15.469-25.438-25-43.301-25h-155.5c54.91-53.688 90.586-123.98 101.5-200zm-96-200h100l0.074219 100h-100.07zm-800 900v-100h100l0.074219 100zm400-400v-100h100l0.035156 49.82-0.035156 0.17969 0.035156 0.18359 0.039063 49.816z"/>
</svg>
